<svg width="390.01" height="132.04" xmlns="http://www.w3.org/2000/svg" data-name="图层 1">

 <g>
  <title>Layer 1</title>
  <path id="svg_1" fill="#7d879c" d="m105.7,13.28l0,0a63.31,63.31 0 0 0 -7.7,-5a4.25,4.25 0 0 0 -5.6,1.2l-16.5,21.9l-1.2,1.59a8.69,8.69 0 0 1 -7.6,3.5l-3.2,0a29.21,29.21 0 0 0 -21.7,11.7a29.89,29.89 0 0 0 -5.9,19.2a3.36,3.36 0 0 0 1.9,2.8a7.75,7.75 0 0 1 4.5,5.8a7.75,7.75 0 1 1 -13.7,-3.5a4.31,4.31 0 0 0 1,-3.4a35.93,35.93 0 0 1 35.7,-39.1a6.49,6.49 0 0 0 5.3,-2.7l15.1,-20.2a2.82,2.82 0 0 0 -1.5,-4.4a66,66 0 0 0 -59,115.6a63.75,63.75 0 0 0 8.4,5.5a4.36,4.36 0 0 0 5.6,-1.2l16.5,-21.9l1.2,-1.6a8.69,8.69 0 0 1 7.6,-3.5l3.2,0a29.21,29.21 0 0 0 21.7,-11.7a29.89,29.89 0 0 0 5.9,-19.2a3.36,3.36 0 0 0 -1.9,-2.8a7.75,7.75 0 0 1 -4.5,-5.8a7.75,7.75 0 1 1 13.7,3.5a4.31,4.31 0 0 0 -1,3.4a35.93,35.93 0 0 1 -35.7,39.1a6.49,6.49 0 0 0 -5.3,2.7l-15.2,20.2a2.84,2.84 0 0 0 1.4,4.4a66.09,66.09 0 0 0 58.5,-116.1l0,0.01z" class="cls-1"/>
  <path id="svg_2" fill="#7d879c" d="m214.7,31.38l0,-1.6a2.11,2.11 0 0 0 -2.1,-2.1l-51.4,0a2.11,2.11 0 0 0 -2.1,2.1l0,3.1a2.11,2.11 0 0 0 2.1,2.1l43.6,0a2,2 0 0 1 2,2.3a79,79 0 0 1 -17.1,37.9a2.08,2.08 0 0 1 -3.2,0a73.16,73.16 0 0 1 -14,-30.8a2.06,2.06 0 0 0 -2.2,-1.7l-1.6,0.2l-1.4,0.2a2,2 0 0 0 -1.8,2.4a82.37,82.37 0 0 0 16.5,35.4a2,2 0 0 1 -0.2,2.8c-14.3,13.1 -27.2,16 -31.8,16.7a2,2 0 0 0 -1.8,2l0,3.2a2,2 0 0 0 2.3,2c5.5,-0.6 20.1,-3.7 36.3,-18.6a2.13,2.13 0 0 1 2.8,0a82.26,82.26 0 0 0 31.3,18.5a2.11,2.11 0 0 0 2.6,-1.4l0.9,-3a2,2 0 0 0 -1.4,-2.5a74.73,74.73 0 0 1 -28.4,-16.7a1.93,1.93 0 0 1 -0.1,-2.8c20,-23.6 20.2,-48.6 20.2,-49.7z" class="cls-1"/>
  <path id="svg_3" fill="#7d879c" d="m250.4,24.48l-3.1,0a2.11,2.11 0 0 0 -2.1,2.1l0,11a2.11,2.11 0 0 1 -2.1,2.1l-7.4,0a2.11,2.11 0 0 0 -2.1,2.1l0,3.1a2.11,2.11 0 0 0 2.1,2.1l7.4,0a2.11,2.11 0 0 1 2.1,2.1l0,15.89a2.11,2.11 0 0 1 -2.1,2.1l-7.4,0a2.11,2.11 0 0 0 -2.1,2.1l0,3.1a2.11,2.11 0 0 0 2.1,2.1l7.4,0a2.11,2.11 0 0 1 2.1,2.1l0,15.1c0,3.3 -1.3,8.6 -9.6,9.3a2.05,2.05 0 0 0 -1.9,2l0,3.1a2.07,2.07 0 0 0 2.2,2.1c8.1,-0.7 16.6,-5.3 16.6,-16.5l0,-15.49a2.11,2.11 0 0 1 2.1,-2.1l6.6,0a2.11,2.11 0 0 0 2.1,-2.1l0,-3.1a2.11,2.11 0 0 0 -2.1,-2.1l-6.6,0a2.11,2.11 0 0 1 -2.1,-2.1l0,-15.9a2.11,2.11 0 0 1 2.1,-2.1l6.6,0a2.11,2.11 0 0 0 2.1,-2.1l0,-3.1a2.11,2.11 0 0 0 -2.1,-2.1l-6.6,0a2.11,2.11 0 0 1 -2.1,-2.1l0,-11a2.08,2.08 0 0 0 -2.1,-1.7z" class="cls-1"/>
  <path id="svg_4" fill="#7d879c" d="m266.7,105.18a2.11,2.11 0 0 0 2.1,2.1l23.1,0c10.2,0 18.6,-7.9 18.6,-17.7l0,-48.61a2.11,2.11 0 0 0 -2.1,-2.1l-39.7,0a2.11,2.11 0 0 0 -2.1,2.1l0,64.2l0.1,0.01zm25.2,-5.2l-15.9,0a2.11,2.11 0 0 1 -2.1,-2.1l0,-21.8a2.11,2.11 0 0 1 2.1,-2.1l25.2,0a2.11,2.11 0 0 1 2.1,2.1l0,13.4c0,5.8 -5.1,10.49 -11.4,10.49l0,0.01zm11.4,-51.8l0,16.6a2.11,2.11 0 0 1 -2.1,2.1l-25.2,0a2.11,2.11 0 0 1 -2.1,-2.1l0,-16.6a2.11,2.11 0 0 1 2.1,-2.1l25.2,0a2.11,2.11 0 0 1 2.1,2.1z" class="cls-1"/>
  <path id="svg_5" fill="#7d879c" d="m298.3,24.38l-20.4,0a2.11,2.11 0 0 0 -2.1,2.1l0,3.1a2.11,2.11 0 0 0 2.1,2.1l20.4,0a2.11,2.11 0 0 0 2.1,-2.1l0,-3.1a2.18,2.18 0 0 0 -2.1,-2.1z" class="cls-1"/>
  <path id="svg_6" fill="#7d879c" d="m376.4,27.58l-42.6,0a2.11,2.11 0 0 0 -2.1,2.1l0,3.1a2.11,2.11 0 0 0 2.1,2.1l42.6,0a2.11,2.11 0 0 0 2.1,-2.1l0,-3.1a2.11,2.11 0 0 0 -2.1,-2.1z" class="cls-1"/>
  <path id="svg_7" fill="#7d879c" d="m358.2,63.88l29.7,0a2.11,2.11 0 0 0 2.1,-2.1l0,-3.1a2.11,2.11 0 0 0 -2.1,-2.1l-65.5,0a2.11,2.11 0 0 0 -2.1,2.1l0,3.1a2.11,2.11 0 0 0 2.1,2.1l20.3,0a2.06,2.06 0 0 1 1.7,3.2l-13.5,24.3a6,6 0 0 0 -0.8,1.6a10.57,10.57 0 0 0 1.5,9.7a11.61,11.61 0 0 0 9.5,4.8l37,0a4.78,4.78 0 0 0 4.1,-2.2a4.53,4.53 0 0 0 0.3,-4.5l-8.6,-16.6a2.12,2.12 0 0 0 -2.8,-0.9l-2.8,1.4a2.12,2.12 0 0 0 -0.9,2.8l5.1,9.8a2.05,2.05 0 0 1 -1.8,3l-29.5,0a4.15,4.15 0 0 1 -3.6,-1.8a3.29,3.29 0 0 1 -0.6,-2.8l0.3,-0.6l16.4,-28.7a5.13,5.13 0 0 1 4.5,-2.5z" class="cls-1"/>
 </g>
</svg>